<svg xmlns="http://www.w3.org/2000/svg" width="381" height="381" viewBox="0 0 381 381">
  <defs>
    <style>
      .cls-1 {
        fill: #767676;
      }

      .cls-1, .cls-3 {
        fill-rule: evenodd;
      }

      .cls-2 {
        fill: #4d4d4d;
      }

      .cls-3 {
        fill: #fff;
      }
    </style>
  </defs>
  <path id="left" class="cls-1" d="M72,81l34,34s-70,67.308-4,150L68,299S-32.572,195.78,72,81Z"/>
  <path id="right" class="cls-1" d="M305.791,299.121L270.8,265.943s68.781-68.962.456-150.053l33.378-34.8S408.206,181.874,305.791,299.121Z"/>
  <path id="top" class="cls-1" d="M299.074,74.5l-33.589,34.6s-68.145-69.592-150.038-2.23L81.041,73.084S183.045-29.292,299.074,74.5Z"/>
  <path id="bottom" class="cls-1" d="M298.011,307.553l-33.584-34.56S196.292,342.5,114.411,275.22l-34.4,33.748S182,411.226,298.011,307.553Z"/>
  <circle id="home" class="cls-2" cx="187.5" cy="191.5" r="102.5"/>
  <path id="left2" class="cls-3" d="M51.5,198.3a13.8,13.8,0,1,1,13.8-13.8A13.813,13.813,0,0,1,51.5,198.3Zm0-26.332A12.533,12.533,0,1,0,64.033,184.5,12.546,12.546,0,0,0,51.5,171.967ZM40.5,184.5l15.484-8.942-5.4,9.082,5.4,8.8Z"/>
  <path id="right2" class="cls-3" d="M325,171.013A13.987,13.987,0,1,1,311.014,185,14,14,0,0,1,325,171.013Zm0,26.691A12.7,12.7,0,1,0,312.3,185,12.716,12.716,0,0,0,325,197.7ZM336.154,185l-15.694,9.063,5.476-9.2-5.476-8.919Z"/>
  <path id="top2" class="cls-3" d="M174.013,56A13.987,13.987,0,1,1,188,69.986,14,14,0,0,1,174.013,56ZM200.7,56A12.7,12.7,0,1,0,188,68.7,12.717,12.717,0,0,0,200.7,56ZM188,44.846l9.063,15.694-9.2-5.476-8.919,5.476Z"/>
  <path id="bottom2" class="cls-3" d="M201.987,328A13.987,13.987,0,1,1,188,314.014,14,14,0,0,1,201.987,328ZM175.3,328A12.7,12.7,0,1,0,188,315.3,12.716,12.716,0,0,0,175.3,328ZM188,339.154l-9.063-15.694,9.2,5.476,8.919-5.476Z"/>
  <path id="home2" class="cls-3" d="M153,183.852l34.5-20.026,6.495,3.754V162h9.086v10.848l18.926,11H153Zm47.417-9.43v-9.734h-3.746l-0.011.016v7.54l-9.19-5.294-24.479,14.215h49.041ZM213.438,221H189.5V206.915l-0.016-.011h-6.806l-0.016.011V221H161.234V185.956h52.2V221Zm-2.664-32.356H163.9v29.669H180V204.217h12.166v14.075l0,0.02h18.6V188.643Zm-5.349,12.245H195.272v-9.656h10.153v9.656Zm-38.972-9.656h10.158v9.656H166.453v-9.656Z"/>
</svg>
